<?xml version="1.0" encoding="utf-8"?>
<!-- Generator: Adobe Illustrator 16.0.0, SVG Export Plug-In . SVG Version: 6.00 Build 0)  -->
<!DOCTYPE svg PUBLIC "-//W3C//DTD SVG 1.1//EN" "http://www.w3.org/Graphics/SVG/1.1/DTD/svg11.dtd">
<svg version="1.1" id="Layer_1" xmlns="http://www.w3.org/2000/svg" xmlns:xlink="http://www.w3.org/1999/xlink" x="0px" y="0px"
	 width="112.75px" height="102.861px" viewBox="0 0 112.75 102.861" enable-background="new 0 0 112.75 102.861"
	 xml:space="preserve">
<g>
	<g>
		<g>
			<path fill="#5897D1" stroke="#FFFFFF" stroke-width="2" stroke-miterlimit="10" d="M81.486,59.397
				c2.928-3.092,4.734-7.256,4.734-11.851c0-9.527-7.723-17.252-17.252-17.252c-1.119,0-2.213,0.116-3.273,0.319
				c-2.563-6.734-9.061-11.53-16.693-11.53c-9.872,0-17.875,8.004-17.875,17.874c0,0.481,0.034,0.952,0.071,1.424
				c-6.158,1.142-10.824,6.532-10.824,13.021c0,7.319,5.935,13.254,13.254,13.254H66.85c0.695,0.084,1.4,0.143,2.119,0.143
				c0.748,0,1.479-0.063,2.199-0.155C75.385,64.569,79.111,62.527,81.486,59.397z"/>
			<g>
				<defs>
					<path id="SVGID_1_" d="M81.486,59.397c2.928-3.092,4.734-7.256,4.734-11.851c0-9.527-7.723-17.252-17.252-17.252
						c-1.119,0-2.213,0.116-3.273,0.319c-2.563-6.734-9.061-11.53-16.693-11.53c-9.872,0-17.875,8.004-17.875,17.874
						c0,0.481,0.034,0.952,0.071,1.424c-6.158,1.142-10.824,6.532-10.824,13.021c0,7.319,5.935,13.254,13.254,13.254H66.85
						c0.695,0.084,1.4,0.143,2.119,0.143c0.748,0,1.479-0.063,2.199-0.155C75.385,64.569,79.111,62.527,81.486,59.397z"/>
				</defs>
				<clipPath id="SVGID_2_">
					<use xlink:href="#SVGID_1_"  overflow="visible"/>
				</clipPath>
				<use xlink:href="#SVGID_1_"  overflow="visible" fill="none" stroke="#FFFFFF" stroke-width="2" stroke-miterlimit="10"/>
			</g>
		</g>
	</g>
</g>
<g>
	<path fill="#82CBDD" stroke="#FFFFFF" stroke-width="2" stroke-miterlimit="10" d="M61.564,75.139h-19.89
		c-1.013,0-1.834-0.822-1.834-1.835c0-1.014,0.821-1.835,1.834-1.835h19.89c1.014,0,1.834,0.821,1.834,1.835
		C63.398,74.317,62.578,75.139,61.564,75.139z"/>
	<path fill="#82CBDD" stroke="#FFFFFF" stroke-width="2" stroke-miterlimit="10" d="M73.014,75.139h-4.426
		c-1.012,0-1.834-0.822-1.834-1.835c0-1.014,0.822-1.835,1.834-1.835h4.426c1.014,0,1.836,0.821,1.836,1.835
		C74.85,74.317,74.027,75.139,73.014,75.139z"/>
	<path fill="#82CBDD" stroke="#FFFFFF" stroke-width="2" stroke-miterlimit="10" d="M52.484,81.949H32.596
		c-1.014,0-1.835-0.822-1.835-1.836s0.821-1.834,1.835-1.834h19.888c1.014,0,1.834,0.82,1.834,1.834S53.498,81.949,52.484,81.949z"
		/>
</g>
<g>
	<defs>
		<path id="SVGID_3_" d="M61.564,75.139h-19.89c-1.013,0-1.834-0.822-1.834-1.835c0-1.014,0.821-1.835,1.834-1.835h19.89
			c1.014,0,1.834,0.821,1.834,1.835C63.398,74.317,62.578,75.139,61.564,75.139z"/>
	</defs>
	<use xlink:href="#SVGID_3_"  overflow="visible" fill="#ADADAD"/>
	<clipPath id="SVGID_4_">
		<use xlink:href="#SVGID_3_"  overflow="visible"/>
	</clipPath>
	<rect x="32.504" y="73.47" clip-path="url(#SVGID_4_)" fill="#898989" width="32.5" height="3.667"/>
</g>
<g>
	<defs>
		<path id="SVGID_5_" d="M73.014,75.139h-4.426c-1.012,0-1.834-0.822-1.834-1.835c0-1.014,0.822-1.835,1.834-1.835h4.426
			c1.014,0,1.836,0.821,1.836,1.835C74.85,74.317,74.027,75.139,73.014,75.139z"/>
	</defs>
	<use xlink:href="#SVGID_5_"  overflow="visible" fill="#ADADAD"/>
	<clipPath id="SVGID_6_">
		<use xlink:href="#SVGID_5_"  overflow="visible"/>
	</clipPath>
	<rect x="66.67" y="73.138" clip-path="url(#SVGID_6_)" fill="#898989" width="10" height="3.667"/>
</g>
<g>
	<defs>
		<path id="SVGID_7_" d="M52.484,81.949H32.596c-1.014,0-1.835-0.822-1.835-1.836s0.821-1.834,1.835-1.834h19.888
			c1.014,0,1.834,0.82,1.834,1.834S53.498,81.949,52.484,81.949z"/>
	</defs>
	<use xlink:href="#SVGID_7_"  overflow="visible" fill="#ADADAD"/>
	<clipPath id="SVGID_8_">
		<use xlink:href="#SVGID_7_"  overflow="visible"/>
	</clipPath>
	<rect x="30.004" y="80.305" clip-path="url(#SVGID_8_)" fill="#898989" width="24.666" height="3.666"/>
</g>
<path fill="#82CBDD" stroke="#FFFFFF" stroke-width="2" stroke-miterlimit="10" d="M71.484,81.949H59.596
	c-1.014,0-1.834-0.822-1.834-1.836s0.82-1.834,1.834-1.834h11.889c1.014,0,1.834,0.82,1.834,1.834S72.498,81.949,71.484,81.949z"/>
<g>
	<defs>
		<path id="SVGID_9_" d="M71.484,81.949H59.596c-1.014,0-1.834-0.822-1.834-1.836s0.82-1.834,1.834-1.834h11.889
			c1.014,0,1.834,0.82,1.834,1.834S72.498,81.949,71.484,81.949z"/>
	</defs>
	<use xlink:href="#SVGID_9_"  overflow="visible" fill="#ADADAD"/>
	<clipPath id="SVGID_10_">
		<use xlink:href="#SVGID_9_"  overflow="visible"/>
	</clipPath>
	<rect x="57.004" y="80.305" clip-path="url(#SVGID_10_)" fill="#898989" width="16.666" height="3.666"/>
</g>
</svg>
